<svg xmlns="http://www.w3.org/2000/svg" width="48" height="40" viewBox="0 0 48 40">
  <defs>
    <style>
      .cls-1 {
        fill: #fff;
        fill-rule: evenodd;
      }
    </style>
  </defs>
  <path id="Logo" class="cls-1" d="M410.962,40.388a10.719,10.719,0,0,0-10.577,10.986,8.225,8.225,0,0,0,8.28,8.244h1.442a5.73,5.73,0,0,0,5.716-5.745h0a3.407,3.407,0,0,0-3.442-3.416,2.325,2.325,0,0,0-1.66.744l-0.617.66a1.621,1.621,0,0,1-2.154.226,1.594,1.594,0,0,1-.2-2.341l0.4-.438a5.879,5.879,0,0,1,4.328-1.9h0a6.4,6.4,0,0,1,6.384,6.416h0a8.829,8.829,0,0,1-8.806,8.851h-1.378a11.415,11.415,0,0,1-11.386-11.443h0a13.865,13.865,0,0,1,13.829-13.9h19.589A7.31,7.31,0,0,0,438,30H411.2A21.255,21.255,0,0,0,390,51.309h0A18.644,18.644,0,0,0,408.6,70h1.548a15.744,15.744,0,0,0,15.7-15.784V53.409a13.139,13.139,0,0,0-1.593-6.31h1.9a6.7,6.7,0,0,0,6.683-6.718h0Z" transform="translate(-390 -30)"/>
</svg>
